# xmcd CD database file
#
# Track frame offsets:
#	150
#	18600
#	38777
#	58972
#	77177
#	94810
#	112530
#	134332
#	155632
#	176685
#	195420
#	216412
#	238305
#	263647
#	281975
#	301825
#
# Disc length: 4270 seconds
#
# Revision: 1
# Processed by: cddbd v1.5.1PL2 Copyright (c) Steve Scherf et al.
# Submitted via: CDex 1.51
#
DISCID=e610ac10
DTITLE=倉木麻衣 - Wish You The Best
DYEAR=1900
DGENRE=Rock
TTITLE0=Love、Day After Tomorrow
TTITLE1=Stay by my side
TTITLE2=Secret of my heart
TTITLE3=NEVER GONNA GIVE YOU UP
TTITLE4=Delicious Way
TTITLE5=Simply Wonderful〜Radio Edit〜
TTITLE6=Reach for the sky
TTITLE7=冷たい海
TTITLE8=Stand Up
TTITLE9=always
TTITLE10=Winter Bells
TTITLE11=Feel fine！
TTITLE12=Like a star in the night
TTITLE13=Time after time〜花舞う街で〜
TTITLE14=風のららら
TTITLE15=Tonight,I feel close to you
EXTD=
EXTT0=
EXTT1=
EXTT2=
EXTT3=
EXTT4=
EXTT5=
EXTT6=
EXTT7=
EXTT8=
EXTT9=
EXTT10=
EXTT11=
EXTT12=
EXTT13=
EXTT14=
EXTT15=
PLAYORDER=
